<?xml version="1.0" encoding="UTF-8"?>
<svg version="1.1" viewBox="0 0 2048 2048" width="512" height="512" xmlns="http://www.w3.org/2000/svg">
<path transform="translate(417)" d="m0 0h46v2l8 1 19 7 15 8 12 9 12 11 11 14 8 14 5 11 3 9 10-2 12-3 23-2 438-1 46-22 15-7 21-9 28-10 25-8 35-9 43-8 39-5h500v2l8 1 19 7 15 8 12 9 12 11 11 14 8 14 5 11 5 16 2 13v28l-4 20-3 9 15 6 17 9 12 9 13 12 10 13 8 14 5 11 5 16 2 13v28l-4 20-3 9 15 6 17 9 12 9 13 12 10 13 8 14 6 14 4 12v5h2v45l-3 8-6 17-8 16-10 14-8 9h-2v2l-14 11-16 9-11 5-9 3 3 10 3 13 1 8 1 48v399l2 9 10 19 16 34 12 29 10 28 9 30 7 28 7 38 4 23 2 5v516l-2 1-5 16-7 16-7 11-12 15h-2v2l-11 9-10 7-17 9-15 5-12 3-9 1h-24l-17-3-14-4-5 15-8 15-10 14-8 9h-2v2l-14 11-14 8-16 7-19 5-8 1h-25l-17-3-12-4h-2l-6 17-7 13-10 14-10 11-14 11-15 9-15 6-19 6h-45l-1-2-24-8-18-10-13-11-6-5-9-11-7-10-8-15-5-13v-2l-25 6-10 1-368 1-38 19-31 14-26 10-36 12-38 10-37 7-34 5-14 2h-113l-3-3-9-5v-2l-4-2-7-10-3-7-1-6v-10l3-11 6-10 7-7 12-6 11-2 79-1 37-3 33-5 31-7 26-7 29-10 29-12 30-14 34-17 10-3 8-1 253-1-3-11-2-14-1-14v-359h-334l-10-3-9-6-7-7-12-21-10-16-12-16-12-14-12-12-11-9-16-12-20-12-16-8-16-7-25-8-24-5-20-2-22-1-98-1v19l-1 29-4 11-7 9-7 6-8 4-10 2-406 1-11 2-10 5-3 3h-2l-2 4-5 8-3 9v16l4 11 7 9 8 6 13 4 163 1 16 2 11 6 9 9 6 12 1 4v16l-4 11-7 9-7 6-8 4-10 2-244 1-13 2-8 4-10 9-5 10-2 7v15l4 11 7 9 8 6 13 4 244 1 15 2 11 6 9 9 6 12 1 3v17l-4 11-7 9-7 6-8 4-10 2-165 1-12 2-8 4-10 9-5 10-2 7v15l4 11 7 9 8 6 13 4 165 1 14 2 11 6 9 9 6 12 1 3v18l-4 10-6 8-8 7-8 4-9 2-86 1-12 2-8 4-10 9-5 10-2 7v15l4 11 7 9 8 6 13 4 102 1 13 2 10 5 9 8 6 10 3 11v9l-3 12-7 11-8 7-12 6h-132l-1-2-24-8-16-9-13-10-8-7-9-11-10-15-7-15-5-16-3-21v-10l2-18 4-16 1-6-20-8-15-9-11-9-7-6-9-11-7-10-9-17-5-15-3-14-1-10v-11l2-18 4-16 1-6-20-8-15-9-11-9-14-14-7-10-8-14-5-12-6-18v-44l8-24 8-16 10-14 9-10 11-10 15-10 18-8 8-2-5-17-2-14-1-14-1-439-9-19-9-17-15-33-11-29-11-33-8-30-7-34-5-33-3-21v-501l8-24 8-16 10-14 9-10 11-10 15-10 15-7 16-5 11-2 12-1h10l18 2 15 4 6 2 3-10 9-19 10-14 9-10 11-10 15-10 17-8 18-5 18-2h11l18 2 15 4 6 2 3-10 9-19 10-14 9-10 7-7 14-10 15-8 20-7zm917 80-30 1-33 3-30 5-27 6-28 8-29 10-40 17-50 25-9 3-6 1-338 1 2 10 2 8 1 9 1 42v330l328 1 13 2 10 5 9 9 15 26 10 15 13 16 11 12 9 9 11 9 13 10 20 13 21 11 20 8 23 7 20 4 27 3h114l1-41 2-11 6-11 6-7 11-6 6-2 8-1 407-1 13-4 10-8 7-10 3-10v-15l-5-13-6-8-9-6-11-4-7-1-167-1-13-4-8-6-7-8-5-12v-18l5-12 6-8 9-6 10-4 7-1 247-1 11-3 10-6 7-8 4-8 2-7v-15l-5-13-6-8-10-7-10-3-8-1-246-1-11-3-9-6-8-9-5-12v-18l5-12 6-8 10-7 9-3 7-1 168-1 10-3 10-6 7-8 4-8 2-7v-15l-5-13-6-8-10-7-10-3-8-1-166-1-11-3-9-6-7-8-5-10-1-3v-18l5-12 6-8 10-7 9-3 7-1 87-1 11-3 10-6 7-8 4-8 2-7v-15l-4-11-7-10-9-6-11-4-8-1zm-895 0-12 2-8 4-10 9-5 8-3 10-1 30-1 225-4 11-7 9-6 5-8 4-8 2h-12l-9-2-10-6-7-7-6-12-2-13-1-166-4-12-6-8-8-7-9-4-13-2-12 2-8 4-10 9-5 8-3 10-1 22-1 153-4 11-7 9-6 5-8 4-8 2h-12l-11-3-9-6-8-9-4-9-2-13-1-86-4-12-6-8-8-7-9-4-13-2-12 2-8 4-10 9-5 8-3 10-1 26v414l1 28 3 34 6 36 7 29 8 27 8 23 12 29 11 24 10 19 10 21 3 10 1 36v305l18-4 27-2h351l3-1 1-330 2-10 5-10 7-8 17-10 15-9 17-12 13-11 6-5v-2l4-2 14-15 13-17 10-15 7-12 10-21 9-25 6-24 3-21 1-11v-117l-45-1-13-4-8-6-7-8-4-9-2-14-1-405-4-12-6-8-8-7-12-5-11-1-11 2-8 4-10 9-5 8-3 10-1 18-1 157-4 11-7 9-6 5-8 4-8 2h-12l-9-2-10-6-7-7-6-12-2-13-1-246-4-12-6-8-8-7-12-5zm362 560-1 20-1 103-2 21-4 24-6 25-9 27-9 21-8 16-9 16-14 21-9 12-9 11-14 15-11 11-8 7-15 12-14 10-17 11-1 4v220l101 1 36 2 28 4 26 6 30 10 25 11 21 11 16 10 17 12 11 9 14 12 22 22 9 11 10 13 17 25 1 1 221 1 2-1 1-107 2-31 6-36 8-29 11-29 11-23 12-21 11-16 12-16 12-14 25-25 11-9 20-15 17-11 1-1v-224l-118-1-25-2-24-4-21-5-36-12-24-11-19-10-19-12-19-14-14-12-13-12-9-9-7-8-9-11-10-13-12-18-3-5-2-1zm1085 74-19 4-12 1-366 1-1 23-1 313-5 13-4 5v2l-4 2-9 6-18 10-12 8-16 12-11 10-8 7-12 13-11 14-9 13-9 15-12 25-7 19-6 23-3 16-2 19-1 24v95l39 1 13 2 12 6 8 8 6 12 1 4 1 59v347l2 14 5 10 8 9 8 5 10 3h13l10-3 10-6 7-8 4-8 2-8 1-168 2-11 7-13 8-7 10-5 4-1h18l10 4 6 4 4 2 2 4 6 10 2 7 1 246 2 14 6 12 7 7 8 5 10 3h13l10-3 10-6 7-8 4-8 2-8 1-248 2-11 7-13 9-8 9-4 4-1h18l10 4 6 4 5 5 6 9 3 9 1 165 2 15 5 10 8 9 9 5 9 3h13l12-4 9-6 8-10 4-13 1-168 2-11 7-13 9-8 9-4 4-1h18l10 4 6 4 5 5 6 9 3 9 1 86 2 14 5 10 8 9 9 5 9 3h13l12-4 9-6 8-10 4-13v-463l-3-33-5-33-6-28-8-29-10-30-12-29-14-29-8-16-9-19-3-9-1-9-1-333z"/>
<path transform="translate(551,1956)" d="m0 0h18l10 4 10 7 7 10 4 11v16l-4 11-6 8-8 7-11 5-5 1h-12l-9-2-10-6-8-8-6-12-1-3v-18l5-12 6-8 9-7z"/>
<path transform="translate(2047,1272)" d="m0 0"/>
<path transform="translate(2047,412)" d="m0 0"/>
<path transform="translate(1793)" d="m0 0 2 1z"/>
<path transform="translate(2047,463)" d="m0 0"/>
<path transform="translate(415)" d="m0 0"/>
</svg>
