<?xml version="1.0" standalone="no"?>
<!DOCTYPE svg PUBLIC "-//W3C//DTD SVG 20010904//EN"
 "http://www.w3.org/TR/2001/REC-SVG-20010904/DTD/svg10.dtd">
<svg version="1.0" xmlns="http://www.w3.org/2000/svg"
 width="423.000000pt" height="421.000000pt" viewBox="0 0 423.000000 421.000000"
 preserveAspectRatio="xMidYMid meet">

<g transform="translate(0.000000,421.000000) scale(0.100000,-0.100000)"
fill="#ffffff" stroke="none">
<path d="M1969 4196 c-2 -2 -33 -6 -69 -10 -36 -3 -77 -8 -92 -11 -16 -3 -38
-7 -50 -8 -37 -6 -219 -47 -278 -63 -394 -108 -809 -413 -1077 -789 -191 -267
-313 -567 -359 -875 -27 -189 -9 -708 27 -744 5 -6 9 -21 9 -35 0 -62 83 -297
154 -439 19 -37 62 -113 96 -167 230 -369 489 -605 865 -790 176 -86 220 -103
383 -150 361 -102 735 -106 1062 -11 158 46 353 129 512 218 37 21 72 38 77
38 16 0 98 54 155 102 134 113 308 299 372 398 16 25 32 46 36 48 4 2 17 20
30 40 12 20 37 55 55 78 18 22 39 60 47 83 9 23 26 56 39 74 49 64 156 336
182 457 8 36 21 93 29 127 37 144 37 584 0 753 -40 189 -90 335 -185 548 -10
23 -23 42 -29 42 -5 0 -10 4 -10 10 0 13 -63 111 -122 189 -26 35 -48 67 -48
72 0 9 -22 32 -174 187 -61 62 -136 132 -166 155 -30 23 -57 44 -60 47 -3 3
-25 21 -49 39 -235 184 -612 333 -943 375 -111 14 -407 23 -419 12z m474 -130
c468 -85 861 -309 1188 -677 255 -289 400 -610 448 -999 13 -103 7 -502 -8
-570 -84 -372 -144 -533 -276 -745 -69 -110 -126 -184 -225 -289 -114 -121
-136 -141 -234 -220 -128 -102 -214 -151 -469 -266 -216 -97 -527 -156 -762
-145 -283 14 -580 78 -775 167 -152 69 -182 87 -323 181 -338 225 -596 555
-745 952 -82 217 -97 287 -122 573 -11 119 -3 251 26 447 25 173 77 331 168
515 69 138 119 218 213 341 104 137 321 333 490 443 179 117 416 218 613 261
41 9 93 21 115 26 127 31 517 34 678 5z"/>
<path d="M1984 3866 c-70 -32 -111 -85 -120 -153 -21 -172 167 -297 311 -206
97 60 126 206 59 290 -35 44 -124 93 -168 92 -17 0 -54 -11 -82 -23z"/>
<path d="M1589 3824 c-9 -11 -10 -20 -2 -32 17 -27 42 -26 49 2 10 43 -20 63
-47 30z"/>
<path d="M2511 3814 c-33 -41 -24 -76 27 -103 19 -10 25 -8 47 13 30 30 32 65
5 94 -28 29 -54 28 -79 -4z"/>
<path d="M1375 3675 c-14 -14 -25 -36 -25 -49 0 -26 38 -66 64 -66 24 0 66 45
66 70 0 24 -42 70 -64 70 -8 0 -27 -11 -41 -25z"/>
<path d="M2970 3580 c-191 -41 -289 -76 -475 -172 -184 -94 -334 -248 -407
-418 -32 -75 -34 -92 -13 -124 34 -52 67 -172 72 -264 3 -51 10 -95 14 -98 5
-3 42 62 82 143 114 229 193 328 381 479 83 67 140 94 159 75 7 -7 -17 -38
-88 -108 -186 -186 -324 -400 -409 -633 -26 -71 -76 -244 -72 -248 2 -2 18 4
35 12 16 9 35 16 42 16 16 0 165 62 279 117 185 90 291 202 400 423 30 60 89
281 99 370 12 100 34 450 29 454 -1 2 -59 -9 -128 -24z"/>
<path d="M1015 3258 c18 -380 29 -457 90 -620 93 -247 263 -401 513 -464 124
-31 268 -44 259 -23 -81 196 -205 415 -296 525 -14 18 -42 51 -61 74 -49 60
-129 140 -173 173 -51 38 -50 61 2 54 43 -5 155 -77 239 -152 142 -128 307
-380 379 -578 21 -59 42 -107 47 -107 5 0 17 7 27 16 19 17 19 30 -2 316 -10
150 -42 296 -82 374 -77 150 -275 314 -482 399 -38 16 -74 32 -80 35 -14 10
-149 56 -220 75 -33 9 -81 23 -107 31 -26 8 -50 14 -54 14 -3 0 -3 -64 1 -142z"/>
<path d="M1812 3328 c-29 -29 -7 -78 34 -78 20 0 54 32 54 52 0 30 -65 49 -88
26z"/>
<path d="M3311 3249 c-17 -17 -31 -39 -31 -48 0 -28 43 -85 73 -95 76 -27 141
91 82 149 -35 36 -85 34 -124 -6z"/>
<path d="M667 3135 c-10 -7 -21 -31 -24 -53 -5 -34 -2 -42 22 -60 55 -43 125
-12 125 56 0 59 -75 94 -123 57z"/>
<path d="M3535 2956 c-82 -37 -112 -121 -81 -228 26 -89 82 -127 170 -114 116
18 187 141 142 247 -37 87 -147 132 -231 95z"/>
<path d="M487 2786 c-52 -48 -45 -115 15 -140 41 -18 78 -5 101 33 26 44 21
75 -14 105 -38 32 -69 33 -102 2z"/>
<path d="M3131 2684 c-26 -32 -26 -31 -1 -71 24 -40 57 -43 88 -10 28 30 28
52 -3 82 -31 32 -58 32 -84 -1z"/>
<path d="M810 2538 c-26 -44 -25 -60 6 -92 33 -32 58 -33 89 -1 47 47 19 125
-46 125 -22 0 -34 -8 -49 -32z"/>
<path d="M3522 2335 c-108 -14 -133 -19 -287 -64 -164 -48 -236 -63 -369 -76
-78 -8 -176 -23 -218 -34 -106 -28 -318 -85 -493 -133 -44 -11 -96 -29 -116
-39 -20 -10 -125 -41 -234 -69 -108 -28 -231 -62 -273 -76 -43 -14 -108 -32
-147 -40 -38 -8 -99 -25 -135 -39 -93 -34 -178 -51 -400 -81 -199 -27 -271
-28 -502 -8 -70 6 -78 5 -78 -11 0 -35 158 -393 182 -412 29 -23 295 20 518
83 144 41 590 201 745 267 44 19 154 65 245 102 91 37 203 86 250 107 47 22
117 52 155 68 39 15 99 41 135 57 36 17 97 40 135 53 39 13 105 40 148 62 61
30 86 38 108 33 57 -13 43 -21 -376 -220 -49 -24 -130 -60 -180 -80 -49 -21
-144 -63 -210 -95 -66 -31 -142 -65 -170 -75 -27 -9 -77 -30 -110 -45 -33 -16
-82 -37 -110 -48 -27 -11 -108 -43 -180 -72 -381 -153 -689 -246 -945 -286
-52 -8 -96 -17 -98 -19 -6 -5 71 -127 120 -190 21 -27 47 -62 58 -76 l20 -26
93 28 c343 104 748 278 1067 459 419 237 571 326 805 470 88 54 180 110 205
125 25 14 74 44 110 66 179 109 445 215 600 238 41 7 118 23 171 36 128 32
233 43 227 24 -6 -17 -71 -40 -208 -73 -236 -56 -320 -80 -435 -126 -136 -55
-187 -81 -283 -144 -37 -24 -96 -58 -132 -76 -36 -18 -90 -50 -120 -70 -30
-21 -82 -55 -115 -75 -33 -21 -85 -55 -115 -75 -30 -20 -98 -62 -150 -92 -52
-30 -133 -79 -180 -108 -201 -125 -726 -399 -950 -495 -136 -59 -338 -133
-437 -160 -35 -10 -63 -21 -63 -25 0 -17 120 -126 185 -168 39 -25 83 -56 98
-69 16 -13 36 -23 45 -23 21 0 185 80 297 145 50 29 110 63 135 75 146 73 611
383 870 580 58 44 125 94 150 112 25 17 106 77 180 133 419 314 700 469 1100
607 63 21 125 46 137 54 21 13 21 16 9 51 -10 30 -21 41 -52 52 -56 20 -295
23 -432 6z m-1687 -566 c0 -24 -5 -35 -17 -37 -22 -4 -35 42 -18 63 20 24 35
12 35 -26z m548 -33 c10 -26 -3 -54 -23 -49 -22 6 -32 27 -24 48 8 19 40 20
47 1z m-855 -38 c16 -16 15 -53 -1 -66 -29 -24 -77 45 -50 71 10 11 38 8 51
-5z m-263 -88 c7 -23 -10 -60 -28 -60 -18 0 -37 21 -37 40 0 38 54 55 65 20z
m825 -24 c0 -40 -24 -55 -40 -26 -13 24 3 60 25 60 10 0 15 -11 15 -34z m525
-11 c0 -23 -4 -30 -20 -30 -21 0 -31 25 -21 51 11 28 41 12 41 -21z m-1565
-50 c0 -17 -36 -38 -50 -30 -18 11 -11 35 13 44 26 10 37 6 37 -14z m-494 -31
c9 -34 -18 -64 -43 -48 -29 18 -38 41 -24 58 22 26 60 20 67 -10z m307 -33 c5
-22 -9 -51 -27 -51 -26 0 -49 26 -42 48 9 29 61 31 69 3z m935 -24 c4 -20 -25
-34 -40 -19 -15 15 -1 44 19 40 10 -2 19 -11 21 -21z m622 -11 c0 -44 -51 -61
-66 -21 -11 27 4 45 36 45 25 0 30 -4 30 -24z m-304 -170 c8 -21 -14 -56 -36
-56 -23 0 -39 26 -33 51 6 23 61 26 69 5z m-746 -25 c0 -40 -25 -60 -47 -38
-14 13 -14 21 -5 42 17 36 52 34 52 -4z m-190 -79 c0 -26 -25 -56 -38 -48 -13
8 -16 48 -5 59 14 14 43 7 43 -11z m-307 -64 c12 -18 1 -68 -15 -68 -18 0 -48
31 -48 51 0 18 28 41 44 36 5 -2 14 -10 19 -19z m987 4 c0 -10 -7 -28 -16 -40
-13 -18 -19 -21 -30 -11 -28 23 -10 69 28 69 11 0 18 -7 18 -18z m-320 -171
c14 -28 -5 -70 -32 -71 -18 0 -38 34 -32 54 12 39 47 48 64 17z m-322 -184 c6
-55 -48 -79 -70 -32 -9 21 -8 28 7 45 27 29 59 22 63 -13z"/>
<path d="M480 2304 c-73 -32 -110 -86 -110 -161 1 -122 87 -209 201 -201 197
14 232 285 47 363 -47 19 -93 19 -138 -1z"/>
<path d="M1032 2187 c-29 -31 -28 -72 3 -102 29 -29 47 -31 86 -8 19 12 31 28
35 51 13 69 -75 111 -124 59z"/>
<path d="M3855 2101 c-55 -21 -125 -49 -156 -64 -31 -15 -59 -27 -63 -27 -4 0
-54 -23 -112 -50 -177 -84 -415 -235 -689 -437 -16 -12 -48 -35 -70 -50 -31
-22 -197 -149 -250 -191 -5 -4 -37 -26 -70 -49 -33 -23 -84 -62 -114 -87 -29
-26 -99 -77 -155 -113 -55 -37 -138 -94 -183 -128 -120 -88 -480 -303 -665
-396 -43 -22 -78 -43 -78 -48 0 -18 169 -91 313 -135 81 -25 152 -46 158 -46
6 0 45 26 87 57 42 31 105 77 140 102 35 25 69 51 75 56 7 6 56 44 110 84 104
79 277 224 423 357 334 304 568 499 926 774 83 64 347 232 433 276 105 54 116
66 107 126 -4 24 -9 28 -36 27 -17 0 -76 -17 -131 -38z m-107 -129 c4 -24 -7
-29 -26 -10 -18 18 -15 40 6 36 9 -2 18 -13 20 -26z m-363 -241 c-7 -23 -34
-28 -53 -9 -19 19 -14 38 11 47 29 12 52 -9 42 -38z m-830 -631 c0 -28 -4 -36
-21 -38 -13 -2 -24 5 -31 21 -14 31 1 59 30 55 18 -2 22 -10 22 -38z m-257
-162 c16 -16 15 -43 -3 -58 -13 -10 -19 -10 -35 5 -11 10 -20 23 -20 30 0 14
21 35 35 35 6 0 16 -5 23 -12z m-168 -138 c15 -28 -4 -62 -33 -58 -39 5 -31
78 9 78 7 0 18 -9 24 -20z m-150 -133 c0 -33 -23 -62 -44 -54 -32 13 -16 77
20 77 18 0 24 -5 24 -23z m-260 -132 c0 -15 -6 -25 -14 -25 -19 0 -28 14 -20
34 10 25 34 19 34 -9z m-83 -89 c-9 -23 -37 -20 -37 3 0 21 20 33 34 20 5 -4
6 -15 3 -23z"/>
<path d="M3930 1912 c-59 -35 -210 -131 -315 -201 -80 -52 -432 -326 -465
-361 -3 -3 -34 -30 -70 -60 -36 -30 -67 -57 -70 -60 -3 -3 -52 -46 -110 -96
-58 -50 -112 -99 -120 -109 -8 -10 -102 -95 -209 -189 -106 -94 -208 -184
-225 -199 -65 -59 -264 -216 -331 -262 -91 -62 -145 -105 -145 -115 0 -10 82
-18 245 -25 134 -5 303 12 429 45 43 11 108 25 144 31 57 10 72 18 114 57 27
25 65 68 86 96 63 88 270 342 339 418 37 40 83 91 102 113 56 63 366 369 486
480 59 55 114 114 121 132 17 39 70 242 79 301 9 53 0 54 -85 4z m-82 -224
c15 -15 16 -54 2 -63 -17 -11 -50 5 -50 25 0 45 23 63 48 38z m-210 -209 c4
-34 -22 -57 -43 -39 -18 15 -19 42 -3 58 19 19 43 10 46 -19z m-228 -215 c0
-8 -9 -14 -20 -14 -19 0 -28 28 -13 43 9 9 33 -12 33 -29z m-196 -90 c29 -11
17 -84 -14 -84 -38 0 -50 60 -16 82 14 9 11 9 30 2z m-195 -178 c17 -20 -3
-56 -29 -56 -23 0 -28 38 -8 58 16 16 23 15 37 -2z m-161 -228 c2 -19 -3 -30
-19 -38 -30 -17 -54 8 -45 45 5 21 12 26 34 23 21 -2 28 -9 30 -30z m-204
-244 c32 -32 8 -82 -33 -69 -29 9 -36 42 -15 66 21 23 28 24 48 3z m-223 -114
c12 -7 19 -21 19 -41 0 -35 -20 -46 -59 -33 -34 12 -39 47 -9 68 27 19 24 19
49 6z"/>
<path d="M3810 1368 c-225 -217 -267 -258 -339 -337 -74 -82 -198 -225 -261
-301 -16 -19 -42 -51 -58 -70 -60 -73 -154 -202 -150 -206 3 -2 45 18 94 44
276 147 570 471 742 817 30 61 63 135 59 135 -1 0 -40 -37 -87 -82z"/>
</g>
</svg>
