<?xml version="1.0" standalone="no"?>
<!DOCTYPE svg PUBLIC "-//W3C//DTD SVG 20010904//EN"
 "http://www.w3.org/TR/2001/REC-SVG-20010904/DTD/svg10.dtd">
<svg version="1.0" xmlns="http://www.w3.org/2000/svg"
 width="517.000000pt" height="107.000000pt" viewBox="0 0 517.000000 107.000000"
 preserveAspectRatio="xMidYMid meet">

<g transform="translate(0.000000,107.000000) scale(0.100000,-0.100000)"
fill="#ffffff" stroke="none">
<path d="M699 1053 c-46 -7 -132 -66 -166 -114 -66 -93 -82 -264 -33 -376 27
-62 90 -125 155 -154 71 -32 209 -32 280 0 65 29 128 91 156 155 19 42 23 70
23 157 1 102 0 109 -34 175 -41 79 -94 126 -172 149 -48 14 -146 18 -209 8z
m177 -122 c23 -10 50 -32 61 -47 44 -61 55 -170 28 -261 -41 -139 -222 -174
-309 -61 -60 80 -62 239 -3 322 25 36 90 66 142 66 22 0 58 -9 81 -19z"/>
<path d="M2370 1051 c-121 -37 -201 -133 -221 -266 -26 -166 53 -323 189 -376
114 -44 289 -23 394 46 l38 25 0 135 0 135 -145 0 -145 0 0 -55 0 -54 78 -3
c72 -3 77 -4 80 -27 9 -59 -32 -94 -135 -116 -39 -8 -106 10 -144 38 -64 47
-95 177 -66 278 32 110 141 167 244 128 34 -12 83 -58 83 -76 0 -7 9 -13 20
-13 36 0 120 22 120 31 0 23 -42 88 -74 117 -20 17 -59 38 -88 47 -53 16 -184
19 -228 6z"/>
<path d="M4316 1045 c-84 -30 -126 -86 -126 -168 0 -107 59 -157 248 -207 128
-34 161 -75 110 -135 -65 -74 -233 -38 -253 55 -6 26 -8 26 -63 22 -31 -2 -60
-7 -64 -11 -12 -10 11 -80 39 -122 17 -25 45 -48 81 -66 48 -24 67 -27 151
-27 113 0 168 20 218 78 40 44 47 69 41 145 -7 104 -60 148 -229 191 -96 25
-134 43 -149 69 -22 43 27 81 104 81 64 0 94 -14 113 -55 17 -35 17 -35 80
-35 61 0 63 1 63 25 0 69 -67 144 -146 164 -59 15 -171 13 -218 -4z"/>
<path d="M1230 726 l0 -326 65 0 65 0 0 136 0 137 49 -5 c28 -3 61 -12 75 -22
14 -9 62 -68 106 -131 l81 -115 79 0 79 0 -62 97 c-34 54 -84 119 -110 144
l-48 47 36 6 c20 4 53 23 74 42 89 80 70 238 -36 290 -33 16 -68 19 -245 22
l-208 4 0 -326z m370 199 c59 -31 45 -128 -21 -146 -13 -4 -68 -7 -121 -8
l-98 -1 0 85 0 85 105 0 c75 0 115 -4 135 -15z"/>
<path d="M1900 725 l0 -325 70 0 70 0 0 325 0 325 -70 0 -70 0 0 -325z"/>
<path d="M2890 725 l0 -325 255 0 255 0 0 50 0 50 -185 0 -185 0 0 95 0 95
165 0 165 0 0 50 0 50 -165 0 -165 0 0 75 0 75 180 0 180 0 0 55 0 55 -250 0
-250 0 0 -325z"/>
<path d="M3520 725 l0 -325 60 0 60 0 0 211 c0 115 3 208 8 206 4 -3 65 -98
137 -211 l130 -206 67 0 68 0 0 325 0 325 -60 0 -60 0 0 -216 c0 -118 -4 -213
-8 -210 -5 3 -69 100 -141 216 l-133 210 -64 0 -64 0 0 -325z"/>
<path d="M1490 155 l0 -145 101 0 101 0 34 34 c32 32 34 38 34 100 0 124 -38
156 -185 156 l-85 0 0 -145z m162 58 c26 -23 25 -96 -2 -123 -11 -11 -31 -20
-45 -20 -25 0 -25 1 -25 80 l0 80 27 0 c14 0 35 -7 45 -17z"/>
<path d="M1873 283 c-3 -10 -15 -40 -26 -68 -10 -27 -32 -85 -48 -128 l-28
-77 48 0 c40 0 50 3 54 20 8 30 112 30 120 0 4 -16 14 -20 51 -20 25 0 46 3
46 7 0 4 -24 69 -52 145 l-53 138 -53 0 c-41 0 -54 -4 -59 -17z m86 -150 c1
-8 -11 -13 -30 -13 -33 0 -33 3 -7 70 l10 25 13 -35 c8 -19 14 -41 14 -47z"/>
<path d="M2250 266 c0 -34 1 -35 48 -38 l47 -3 3 -107 3 -108 44 0 45 0 0 110
0 110 45 0 c45 0 45 0 45 35 l0 35 -140 0 -140 0 0 -34z"/>
<path d="M2580 155 l0 -145 125 0 125 0 0 30 0 30 -80 0 -80 0 0 30 0 30 75 0
75 0 0 30 0 30 -75 0 c-73 0 -75 1 -75 25 0 25 1 25 80 25 l80 0 0 30 0 30
-125 0 -125 0 0 -145z"/>
<path d="M2890 156 l0 -146 45 0 45 0 0 54 c0 84 24 83 69 0 26 -48 27 -49 79
-52 28 -2 52 -1 52 1 0 11 -52 96 -65 107 -12 10 -10 16 15 37 36 30 40 78 11
114 -18 22 -27 24 -135 27 l-116 4 0 -146z m170 69 c19 -22 -5 -45 -46 -45
-31 0 -34 3 -34 30 0 27 3 30 34 30 18 0 39 -7 46 -15z"/>
<path d="M3220 156 l0 -146 45 0 45 0 0 54 c0 84 24 83 69 0 26 -48 27 -49 79
-52 28 -2 52 -1 52 1 0 11 -52 96 -65 107 -12 10 -10 16 15 37 36 30 40 78 11
114 -18 22 -27 24 -135 27 l-116 4 0 -146z m170 69 c19 -22 -5 -45 -46 -45
-31 0 -34 3 -34 30 0 27 3 30 34 30 18 0 39 -7 46 -15z"/>
<path d="M3623 283 c-3 -10 -15 -40 -26 -68 -10 -27 -32 -85 -48 -128 l-28
-77 48 0 c40 0 50 3 54 20 8 30 112 30 120 0 4 -16 14 -20 51 -20 25 0 46 3
46 7 0 4 -24 69 -52 145 l-53 138 -53 0 c-41 0 -54 -4 -59 -17z m86 -150 c1
-8 -11 -13 -30 -13 -33 0 -33 3 -7 70 l10 25 13 -35 c8 -19 14 -41 14 -47z"/>
<path d="M760 135 l0 -25 270 0 270 0 0 25 0 25 -270 0 -270 0 0 -25z"/>
<path d="M3990 135 l0 -25 250 0 250 0 0 25 0 25 -250 0 -250 0 0 -25z"/>
</g>
</svg>
