<?xml version="1.0" standalone="no"?>
<!DOCTYPE svg PUBLIC "-//W3C//DTD SVG 20010904//EN"
 "http://www.w3.org/TR/2001/REC-SVG-20010904/DTD/svg10.dtd">
<svg version="1.0" xmlns="http://www.w3.org/2000/svg"
 width="253.000000pt" height="232.000000pt" viewBox="0 0 253.000000 232.000000"
 preserveAspectRatio="xMidYMid meet">

<g transform="translate(0.000000,232.000000) scale(0.100000,-0.100000)"
fill="#000000" stroke="none">
<path d="M0 2283 l1 -38 14 34 c18 41 18 41 0 41 -11 0 -15 -11 -15 -37z"/>
<path d="M1475 2255 c-54 -33 -46 -31 -175 -54 -197 -35 -491 -91 -588 -111
-69 -14 -99 -17 -119 -9 -32 12 -106 -2 -161 -30 -141 -73 -204 -289 -145
-501 19 -71 78 -184 116 -222 24 -24 38 -29 71 -28 63 3 64 1 18 -20 l-43 -19
7 -106 c4 -58 4 -105 1 -105 -3 0 -21 9 -39 19 -43 25 -118 45 -129 34 -14
-14 17 -122 42 -150 29 -30 71 -53 99 -53 25 0 37 -25 20 -45 -21 -26 -50 -17
-96 30 -41 43 -46 45 -99 45 -51 0 -55 -2 -46 -18 13 -24 37 -44 70 -58 l26
-11 -41 -21 c-24 -12 -57 -42 -77 -71 l-36 -50 33 -6 c18 -4 59 -2 91 4 67 13
111 47 123 96 9 35 52 50 52 18 0 -29 47 -71 87 -79 20 -4 47 -18 60 -30 13
-13 29 -24 36 -24 7 0 26 -11 42 -25 45 -37 47 -39 85 -58 71 -37 90 -48 90
-56 0 -4 18 -13 41 -20 22 -7 48 -20 58 -30 10 -10 43 -31 73 -46 l56 -28 188
61 c104 34 257 82 339 107 83 26 229 73 325 106 176 60 210 79 210 121 0 31
33 17 42 -17 15 -61 90 -105 178 -105 64 0 68 13 25 66 -21 26 -54 56 -73 67
-31 18 -32 21 -15 30 24 13 73 59 73 69 0 4 -23 8 -51 8 -49 0 -54 -3 -92 -45
-42 -46 -75 -57 -96 -31 -18 21 -3 43 34 50 43 8 81 39 104 84 21 42 34 109
22 116 -11 7 -112 -21 -124 -33 -6 -6 -17 -11 -24 -11 -10 0 -13 24 -13 99 l0
100 -57 27 c-32 14 -59 28 -61 29 -6 5 28 65 37 65 5 0 12 -12 15 -26 l7 -27
25 24 c21 20 28 21 44 11 23 -14 80 -16 80 -3 0 16 -31 41 -51 41 -24 0 -24
12 -1 33 15 14 24 15 48 6 31 -12 84 1 84 20 0 19 -96 35 -107 19 -8 -15 -23
-8 -23 10 0 21 -27 62 -41 62 -17 0 -9 -57 11 -83 l20 -25 -26 -31 c-29 -35
-44 -39 -44 -13 0 10 -5 23 -12 30 -8 8 -8 15 1 26 9 10 11 31 7 63 -8 64 -8
82 0 121 7 36 -8 62 -37 62 -16 0 -18 -7 -16 -47 2 -43 0 -47 -27 -54 -39 -11
-73 -45 -96 -96 -10 -24 -23 -43 -28 -43 -20 0 -45 28 -39 44 7 18 -17 23 -28
6 -4 -6 -11 -8 -16 -4 -5 3 -16 0 -24 -6 -23 -19 -19 19 4 50 15 19 27 24 58
22 31 -2 44 3 66 26 44 46 48 79 21 147 -29 70 -50 95 -79 95 -12 0 -31 13
-43 30 -14 19 -35 31 -58 36 -19 3 -38 13 -41 20 -3 7 16 38 42 68 l47 55 -26
56 c-71 155 -186 215 -291 150z m154 -10 c32 -16 101 -92 101 -111 0 -6 -10
-14 -22 -18 -33 -8 -38 -8 -38 7 0 22 -69 96 -109 117 l-36 19 38 1 c21 0 51
-7 66 -15z m-156 -42 c-7 -2 -19 -2 -25 0 -7 3 -2 5 12 5 14 0 19 -2 13 -5z
m-50 -10 c-7 -2 -19 -2 -25 0 -7 3 -2 5 12 5 14 0 19 -2 13 -5z m-78 -13 c-16
-4 -41 -8 -55 -8 l-25 0 25 8 c14 4 39 8 55 8 l30 0 -30 -8z m-92 -17 c-7 -2
-21 -2 -30 0 -10 3 -4 5 12 5 17 0 24 -2 18 -5z m-60 -10 c-7 -2 -19 -2 -25 0
-7 3 -2 5 12 5 14 0 19 -2 13 -5z m-50 -10 c-7 -2 -19 -2 -25 0 -7 3 -2 5 12
5 14 0 19 -2 13 -5z m-123 -23 c-14 -4 -36 -8 -50 -8 -22 0 -22 1 5 8 17 4 39
8 50 8 16 0 15 -2 -5 -8z m-103 -16 c-3 -3 -12 -4 -19 -1 -8 3 -5 6 6 6 11 1
17 -2 13 -5z m-44 -11 c-7 -2 -19 -2 -25 0 -7 3 -2 5 12 5 14 0 19 -2 13 -5z
m882 -13 c3 -11 3 -24 0 -30 -8 -12 -42 -13 -49 -1 -4 5 3 7 14 4 26 -7 27 22
3 36 -16 9 -16 10 4 11 13 0 24 -8 28 -20z m-978 -6 c-3 -3 -12 -4 -19 -1 -8
3 -5 6 6 6 11 1 17 -2 13 -5z m897 -20 c4 -15 6 -27 4 -28 -5 -4 -335 -76
-345 -76 -6 0 -10 13 -11 30 -1 32 -5 30 108 55 243 53 236 52 244 19z m-1077
5 c37 -14 70 -44 104 -98 35 -54 36 -61 6 -61 -13 0 -28 -5 -34 -11 -8 -8 -13
-5 -18 10 -10 32 -83 120 -117 141 -26 15 -27 19 -12 23 32 8 42 7 71 -4z
m126 4 c-7 -2 -19 -2 -25 0 -7 3 -2 5 12 5 14 0 19 -2 13 -5z m568 -20 c7 -43
3 -155 -5 -162 -21 -18 -61 -22 -80 -8 -16 12 -15 13 15 9 53 -5 66 12 61 86
l-4 62 -41 1 -42 2 35 7 c50 11 60 11 61 3z m-851 -27 c0 -2 -7 -7 -16 -10 -8
-3 -12 -2 -9 4 6 10 25 14 25 6z m715 -6 c-11 -5 -27 -9 -35 -9 -13 -1 -13 0
0 9 8 5 24 9 35 9 l20 0 -20 -9z m83 -25 c-3 -3 -9 2 -12 12 -6 14 -5 15 5 6
7 -7 10 -15 7 -18z m-132 -60 c10 -20 9 -25 -5 -29 -29 -9 -296 -66 -307 -66
-12 0 -29 48 -20 57 7 8 256 60 291 62 23 1 33 -5 41 -24z m158 9 c9 -23 8
-24 -19 -24 -28 0 -30 5 -12 25 16 19 24 18 31 -1z m441 -35 c5 -5 19 -9 32
-9 13 0 33 -10 45 -22 l22 -22 -29 -8 c-19 -5 -34 -3 -44 5 -12 10 -13 9 -6
-2 6 -11 4 -13 -9 -8 -10 4 -24 7 -32 7 -8 0 -14 7 -14 15 0 20 -5 19 -41 -7
-27 -21 -32 -21 -42 -7 -7 8 -21 21 -32 27 -11 6 -14 12 -7 12 6 0 14 -1 16
-2 2 -2 12 4 22 13 31 28 92 32 119 8z m-961 -25 c20 -19 21 -54 2 -54 -8 0
-21 -3 -30 -6 -23 -9 -44 40 -26 61 16 19 34 19 54 -1z m964 -74 c31 -19 40
-42 23 -68 -8 -13 -87 -12 -109 2 -29 18 1 86 37 86 9 0 31 -9 49 -20z m156
14 c9 -3 16 -11 16 -17 0 -6 6 -18 13 -26 7 -9 19 -33 26 -54 10 -31 10 -43
-1 -67 -17 -40 -25 -38 -33 10 -7 42 -14 47 -44 30 -29 -15 -54 20 -49 70 2
29 0 40 -10 40 -7 0 -10 5 -7 10 7 11 64 14 89 4z m-1266 -239 c-59 -118 -108
-221 -108 -230 0 -8 -6 -15 -14 -15 -9 0 26 81 100 230 63 127 118 230 122
230 5 0 -40 -97 -100 -215z m587 209 c9 -4 32 -27 51 -52 35 -46 44 -70 22
-55 -7 4 -16 8 -19 8 -3 0 -19 16 -35 35 -16 19 -22 31 -13 25 8 -5 6 -2 -4 8
-11 9 -35 17 -54 17 -20 0 -32 4 -28 10 7 11 55 13 80 4z m348 -8 c11 -8 17
-27 17 -51 0 -21 -3 -35 -7 -32 -3 4 -13 2 -20 -5 -11 -9 -16 -9 -23 1 -4 8
-12 11 -17 8 -6 -4 -10 14 -9 43 1 43 4 50 21 50 11 0 28 -7 38 -14z m-569
-117 c14 -11 26 -28 26 -37 0 -14 -4 -13 -18 5 -9 12 -28 24 -42 27 -14 2 -36
9 -50 14 -23 10 -22 11 16 11 27 1 50 -6 68 -20z m1106 1 c0 -11 -2 -20 -4
-20 -2 0 -6 9 -9 20 -3 11 -1 20 4 20 5 0 9 -9 9 -20z m-687 -62 c29 -29 73
-65 100 -80 26 -15 52 -39 59 -53 10 -21 8 -28 -15 -51 -15 -14 -29 -34 -32
-44 -7 -21 -77 -70 -101 -70 -10 0 -34 18 -54 39 -33 34 -39 48 -45 103 -4 34
-14 80 -21 102 -15 41 -18 88 -7 99 3 4 19 7 36 7 22 0 41 -13 80 -52z m335
-4 c23 40 43 45 22 6 -16 -30 -7 -35 27 -13 l28 18 -18 -25 c-9 -14 -25 -41
-35 -60 -9 -19 -25 -41 -35 -49 -10 -7 -27 -27 -37 -44 l-19 -30 -6 24 c-3 13
-4 35 -2 49 5 29 -8 60 -26 60 -7 0 -29 16 -48 36 -29 32 -31 35 -9 24 14 -7
32 -19 41 -27 25 -21 46 -7 41 27 -3 22 0 30 11 30 8 0 18 8 23 18 6 12 10 3
13 -33 l6 -50 23 39z m-134 20 c3 -8 2 -12 -4 -9 -6 3 -10 10 -10 16 0 14 7
11 14 -7z m-780 -36 c18 -25 12 -39 -7 -16 -6 9 -21 20 -32 26 -20 11 -19 11
2 12 12 0 29 -10 37 -22z m1262 -23 c10 -25 12 -41 5 -53 -9 -15 -10 -14 -11
5 0 25 -15 39 -25 23 -10 -16 -22 -12 -28 11 -4 15 -11 20 -21 16 -9 -4 -16
-2 -16 2 0 9 44 29 68 30 7 1 20 -15 28 -34z m-1300 10 c10 -8 15 -14 9 -14
-5 0 -19 6 -29 14 -11 8 -15 15 -10 15 6 0 19 -7 30 -15z m344 7 c0 -4 -14
-13 -31 -21 -23 -10 -34 -10 -42 -2 -6 6 -19 11 -30 11 -10 0 -15 5 -12 10 7
12 115 14 115 2z m429 -37 c45 -51 38 -60 -15 -20 -25 19 -50 35 -55 35 -6 0
-7 5 -4 10 12 20 44 9 74 -25z m-521 2 c23 -18 12 -25 -29 -16 -23 5 -50 7
-60 4 -28 -9 -23 2 8 18 27 14 58 12 81 -6z m171 4 c33 -25 23 -55 -14 -41
-15 6 -39 10 -55 10 -38 0 -46 15 -18 34 29 21 57 20 87 -3z m-424 -31 c3 -5
2 -10 -4 -10 -5 0 -13 5 -16 10 -3 6 -2 10 4 10 5 0 13 -4 16 -10z m60 0 c-3
-5 -11 -10 -16 -10 -6 0 -7 5 -4 10 3 6 11 10 16 10 6 0 7 -4 4 -10z m1335
-11 c0 -6 -4 -7 -10 -4 -5 3 -10 11 -10 16 0 6 5 7 10 4 6 -3 10 -11 10 -16z
m-1131 -8 c20 -13 -18 -31 -63 -31 -27 0 -34 4 -30 14 9 23 67 33 93 17z m892
-29 c-10 -20 -36 -55 -57 -78 -22 -22 -29 -29 -18 -15 12 14 36 50 54 79 37
60 49 69 21 14z m-1075 -1 c-4 -6 -15 -11 -24 -10 -11 0 -12 3 -4 6 6 2 12 12
12 21 0 12 3 13 11 5 6 -6 8 -16 5 -22z m392 5 c9 -8 12 -19 8 -23 -4 -4 -11
-1 -16 7 -8 12 -10 10 -10 -7 0 -12 5 -25 10 -28 6 -3 9 -30 9 -58 -1 -29 -4
-42 -6 -30 -2 12 -24 38 -49 58 -51 42 -55 54 -16 48 21 -4 24 -2 12 6 -8 6
-27 11 -41 11 -15 0 -37 9 -50 20 l-24 21 78 -4 c55 -3 84 -9 95 -21z m-583
-18 c-4 -44 -5 -46 -14 -23 -5 11 -4 28 1 38 13 25 16 21 13 -15z m1312 -41
c-20 -30 -41 -58 -47 -62 -7 -4 3 17 22 46 19 30 38 60 42 67 4 7 10 11 13 8
2 -2 -11 -29 -30 -59z m-907 50 c0 -7 -32 -112 -36 -119 -7 -11 -32 2 -38 18
-7 18 8 49 37 82 18 19 37 29 37 19z m810 -19 c0 -13 -23 -5 -28 10 -2 7 2 10
12 6 9 -3 16 -11 16 -16z m155 -45 c-29 -64 -94 -163 -106 -163 -5 0 8 24 29
53 20 30 50 81 66 115 16 34 31 60 34 58 2 -3 -8 -31 -23 -63z m-1057 19 c-16
-20 -26 -25 -34 -18 -9 8 -5 16 15 28 38 26 46 22 19 -10z m164 -17 c16 -22
31 -57 35 -77 5 -37 5 -37 -25 -33 -74 9 -91 34 -77 116 9 51 28 49 67 -6z
m-542 -18 c-27 -26 -31 -27 -21 -9 7 13 19 26 27 29 8 3 14 13 15 22 0 11 2
12 6 3 3 -8 -10 -28 -27 -45z m1035 16 c13 -12 16 -27 12 -56 -3 -22 1 -57 10
-82 12 -36 12 -51 3 -81 -10 -30 -16 -35 -34 -30 -11 3 -32 6 -46 6 -18 0 -21
3 -11 9 11 7 9 10 -8 16 -53 17 -94 99 -60 120 14 9 69 86 69 97 0 5 -5 6 -12
2 -7 -4 -8 -3 -4 4 11 18 62 14 81 -5z m-880 -28 c14 -13 25 -36 25 -50 0 -31
-13 -32 -28 -2 -11 22 -11 22 -11 -4 -1 -24 -31 -65 -31 -42 0 5 -16 15 -35
22 -43 15 -44 26 -2 51 17 11 27 20 21 20 -5 0 -19 7 -30 15 -18 13 -16 14 24
15 32 0 49 -6 67 -25z m765 -29 c0 -2 -8 -10 -17 -17 -16 -13 -17 -12 -4 4 13
16 21 21 21 13z m-656 -23 c10 -26 -35 -46 -49 -23 -11 17 3 40 24 40 10 0 22
-8 25 -17z m892 5 c4 -6 2 -14 -4 -16 -7 -2 -12 -10 -12 -18 0 -8 -4 -14 -10
-14 -5 0 -10 9 -10 20 0 11 -6 20 -12 20 -9 0 -8 4 2 10 20 13 37 12 46 -2z
m-276 -12 c0 -2 -8 -10 -17 -17 -16 -13 -17 -12 -4 4 13 16 21 21 21 13z
m-536 -28 c7 -12 7 -21 0 -28 -14 -14 -60 22 -50 39 10 16 36 10 50 -11z m873
0 c13 -12 23 -32 23 -45 0 -28 -5 -29 -32 -3 -16 14 -18 20 -7 20 10 1 9 3 -3
11 -17 10 -25 39 -11 39 4 0 17 -10 30 -22z m256 -9 c40 -14 46 -24 20 -32
-10 -3 -103 -31 -208 -62 -104 -31 -226 -68 -270 -80 -69 -20 -427 -129 -507
-155 -23 -7 -44 0 -119 36 -110 54 -182 95 -175 101 2 3 59 -23 126 -56 67
-34 131 -61 142 -61 11 0 154 40 317 89 163 49 377 113 476 141 166 48 223 70
184 70 -8 0 -24 7 -35 16 -20 17 -15 16 49 -7z m-1269 -5 c21 -21 13 -32 -19
-26 -24 4 -33 21 -18 35 10 11 20 8 37 -9z m573 -5 c43 -27 63 -66 63 -123 0
-69 -8 -69 -86 2 -25 23 -27 27 -11 30 10 2 31 -1 47 -7 17 -5 30 -6 30 -2 0
13 -23 29 -53 36 -30 8 -33 15 -15 33 16 16 2 28 -16 13 -12 -10 -19 -9 -37 8
-22 21 -45 19 -33 -2 5 -9 4 -9 -5 -1 -13 12 -61 7 -61 -6 0 -4 9 -10 20 -13
11 -3 20 -10 20 -16 0 -17 -28 -13 -39 6 -9 16 -11 16 -32 -2 l-22 -20 12 23
c32 61 149 83 218 41z m-497 -8 c0 -22 -29 -36 -43 -22 -15 15 0 41 23 41 13
0 20 -7 20 -19z m-342 -11 c11 -18 10 -19 -13 -8 -26 12 -34 28 -12 28 7 0 18
-9 25 -20z m499 -2 c-3 -8 -6 -5 -6 6 -1 11 2 17 5 13 3 -3 4 -12 1 -19z m38
-18 c-3 -5 -10 -10 -16 -10 -5 0 -9 5 -9 10 0 6 7 10 16 10 8 0 12 -4 9 -10z
m1043 -176 c-3 -183 -3 -187 -25 -195 -17 -6 -23 -5 -23 6 0 7 8 15 17 17 15
3 15 5 -2 22 -20 19 -20 23 -16 199 1 42 5 57 15 57 22 0 28 17 14 39 -9 15
-16 17 -30 10 -11 -6 -18 -6 -18 0 0 8 41 28 63 30 4 1 6 -83 5 -185z m-1588
161 c7 -9 9 -19 5 -23 -4 -4 -10 -1 -12 6 -3 6 -11 12 -19 12 -8 0 -14 5 -14
10 0 15 26 12 40 -5z m398 3 c-6 -16 -36 -34 -44 -26 -3 4 -4 14 -1 23 7 17
51 21 45 3z m77 2 c-3 -5 -12 -7 -20 -3 -21 7 -19 13 6 13 11 0 18 -4 14 -10z
m-231 -40 c-13 -13 -44 -2 -44 15 0 20 23 25 40 9 10 -10 11 -17 4 -24z m80
23 c10 -26 -35 -46 -49 -23 -11 17 3 40 24 40 10 0 22 -8 25 -17z m285 -19
c24 -31 29 -105 8 -123 -11 -9 -14 -1 -13 40 1 45 -2 52 -25 66 -15 9 -25 22
-22 30 8 21 30 15 52 -13z m887 10 c-3 -9 -6 -19 -6 -24 0 -4 -46 -22 -102
-40 -57 -17 -123 -38 -147 -46 -56 -18 -61 -18 -61 1 0 8 -5 15 -12 15 -35 0
22 22 152 60 80 23 147 44 149 46 12 11 33 2 27 -12z m-778 -29 c-13 -29 -26
-32 -35 -9 -6 16 12 34 34 34 10 0 10 -6 1 -25z m69 -62 c-4 -3 -16 2 -27 12
-16 14 -17 21 -8 38 11 21 12 20 26 -11 9 -17 13 -35 9 -39z m-498 43 c9 -10
7 -17 -5 -27 -14 -11 -18 -10 -30 5 -23 32 10 52 35 22z m59 -1 c-4 -11 -28
-16 -28 -6 0 12 13 22 23 18 5 -1 7 -7 5 -12z m-328 -152 c0 -75 -2 -134 -5
-132 -8 9 -9 269 0 269 3 0 5 -61 5 -137z m-53 90 c-3 -10 -5 -4 -5 12 0 17 2
24 5 18 2 -7 2 -21 0 -30z m-96 -10 c31 -16 55 -36 57 -47 3 -11 0 -16 -7 -12
-6 4 -11 0 -11 -10 0 -23 -12 -10 -27 29 -8 21 -12 26 -12 13 -1 -18 -3 -18
-26 4 -28 27 -47 20 -22 -8 22 -24 21 -32 -2 -32 -24 0 -27 5 -36 53 -6 32 -5
37 12 37 11 0 44 -12 74 -27z m1279 -17 c0 -29 -6 -48 -17 -57 -14 -12 -16
-12 -8 0 5 8 9 30 10 48 1 37 -10 41 -63 22 -17 -6 -37 -9 -44 -6 -7 2 10 11
37 19 81 26 85 24 85 -26z m230 -115 c0 -146 0 -149 -22 -155 -34 -9 -38 -8
-38 9 0 8 9 15 20 15 11 0 20 4 20 8 0 4 -9 14 -20 22 -27 19 -27 66 0 73 23
6 17 37 -6 37 -10 0 -14 12 -14 40 0 33 3 40 20 40 26 0 25 15 -2 34 l-22 15
25 9 c13 6 27 8 32 5 4 -2 7 -71 7 -152z m377 122 c-4 -21 -15 -49 -25 -63
-20 -27 -68 -42 -60 -18 3 7 15 15 28 16 17 3 20 6 10 12 -12 7 -11 13 5 29
26 29 10 39 -19 12 -18 -17 -25 -19 -29 -9 -4 9 -8 6 -12 -9 -4 -13 -12 -20
-21 -16 -36 14 3 51 76 74 49 14 53 12 47 -28z m-1477 -9 c0 -2 -9 0 -20 6
-11 6 -20 13 -20 16 0 2 9 0 20 -6 11 -6 20 -13 20 -16z m697 -24 c-4 -27 -3
-27 -102 -55 -64 -19 -90 -23 -95 -14 -5 8 -11 6 -18 -7 -8 -14 -91 -49 -98
-41 -1 1 -5 12 -8 24 -6 19 -2 23 36 34 24 6 90 27 148 45 125 40 141 41 137
14z m133 -1 c0 -5 -4 -9 -10 -9 -5 0 -10 7 -10 16 0 8 5 12 10 9 6 -3 10 -10
10 -16z m-440 1 c0 -5 -9 -10 -20 -10 -11 0 -20 5 -20 10 0 6 9 10 20 10 11 0
20 -4 20 -10z m806 1 c-8 -12 -66 -32 -66 -22 0 4 15 13 33 19 17 5 33 10 35
11 2 1 1 -3 -2 -8z m-1106 -32 c0 -5 -4 -9 -8 -9 -5 0 -9 7 -9 15 0 8 4 12 9
9 4 -3 8 -9 8 -15z m-180 5 c0 -3 -9 -17 -20 -31 -51 -65 6 -178 88 -176 60 2
92 67 61 125 -17 31 12 18 31 -14 21 -39 4 -97 -37 -121 -29 -16 -36 -17 -80
-4 -91 26 -138 143 -82 203 21 23 39 31 39 18z m-326 -13 c10 -15 -33 -20 -45
-5 -9 11 -7 14 14 14 14 0 28 -4 31 -9z m1242 -107 c-3 -8 -11 -14 -18 -14
-10 0 -10 2 0 9 8 5 11 17 7 34 -4 14 -3 32 2 39 9 15 18 -45 9 -68z m114 60
c-25 -7 -52 -13 -60 -13 -21 1 60 27 85 27 11 0 0 -6 -25 -14z m-586 -10 c3
-9 6 -94 6 -190 l0 -175 -32 -14 c-18 -7 -36 -11 -40 -9 -5 3 -8 75 -8 160 l0
154 25 0 c30 0 43 24 25 45 -18 21 -33 18 -27 -5 3 -13 0 -20 -10 -20 -24 0
-11 43 17 57 32 16 37 16 44 -3z m-98 -9 c11 -27 -1 -30 -23 -7 -22 21 -22 22
-2 22 11 0 22 -7 25 -15z m324 -139 c0 -131 -2 -155 -16 -160 -25 -10 -31 -7
-37 14 -3 13 -1 19 7 18 12 -3 16 3 16 27 0 8 -7 15 -15 15 -10 0 -15 10 -15
34 0 29 3 33 20 29 21 -6 25 3 11 26 -5 7 -14 10 -20 7 -7 -5 -11 6 -11 33 0
34 3 41 20 41 29 0 22 31 -10 42 -11 4 -9 8 10 16 14 6 28 11 33 11 4 1 7 -68
7 -153z m-1064 128 c18 -14 18 -15 -6 -9 -69 18 -67 18 -41 -4 13 -12 19 -21
14 -21 -14 0 -53 30 -53 41 0 15 65 10 86 -7z m2029 6 c3 -5 -9 -17 -27 -26
l-33 -17 20 23 20 23 -20 -7 c-11 -5 -29 -10 -40 -13 -20 -4 -20 -4 -1 11 22
18 71 21 81 6z m-346 -14 c-2 -1 -19 -8 -36 -14 -37 -12 -45 -6 -10 8 22 9 54
13 46 6z m-529 -41 c-19 -7 -42 -13 -50 -13 -8 0 1 6 20 13 19 7 42 13 50 13
8 0 -1 -6 -20 -13z m-1100 -15 c13 -9 13 -11 0 -20 -8 -5 -31 -10 -50 -10 -26
0 -31 -3 -20 -10 11 -7 7 -10 -17 -10 -22 0 -31 -4 -27 -13 2 -7 -9 -20 -26
-30 -16 -10 -30 -14 -30 -9 0 16 61 70 103 90 50 25 48 24 67 12z m151 -10
c12 -7 19 -21 19 -41 0 -18 -4 -28 -10 -24 -6 4 -8 11 -5 16 4 5 -5 20 -19 34
-26 26 -19 33 15 15z m1215 -21 c-33 -11 -61 -17 -63 -15 -6 5 86 34 107 34 8
0 -12 -9 -44 -19z m383 14 c0 -5 -4 -16 -8 -27 -7 -17 -8 -18 -24 -1 -14 14
-20 15 -32 5 -11 -9 -15 -9 -15 -1 0 13 34 29 63 30 9 1 17 -2 16 -6z m191
-14 c35 -21 51 -38 71 -71 15 -27 -3 -22 -39 11 -17 16 -40 31 -49 33 -10 2
-17 10 -15 16 1 7 -10 12 -27 12 -17 0 -33 5 -36 10 -12 19 60 10 95 -11z
m-1930 -18 c0 -6 -4 -13 -10 -16 -5 -3 -10 1 -10 9 0 9 5 16 10 16 6 0 10 -4
10 -9z m1640 -15 c0 -21 -14 -28 -162 -79 -145 -49 -508 -164 -627 -198 -35
-10 -45 -11 -49 -1 -6 19 -19 14 -26 -10 -6 -23 -7 -23 -21 -4 -11 15 -18 17
-27 8 -8 -8 -8 -15 3 -28 12 -14 11 -16 -6 -13 -13 3 -21 14 -23 30 -3 25 1
28 70 48 175 52 753 234 813 256 53 19 55 19 55 -9z m-785 4 c-11 -5 -27 -9
-35 -9 -13 -1 -13 0 0 9 8 5 24 9 35 9 l20 0 -20 -9z m-905 -21 c-7 -11 -14
-18 -17 -15 -8 8 5 36 17 36 7 0 7 -6 0 -21z m1937 6 c9 -25 -4 -29 -17 -6 -7
15 -7 21 0 21 6 0 13 -7 17 -15z m-762 -25 c-11 -5 -27 -9 -35 -9 -9 0 -8 4 5
9 11 5 27 9 35 9 9 0 8 -4 -5 -9z m-55 -14 c0 -2 -9 -6 -20 -9 -11 -3 -18 -1
-14 4 5 9 34 13 34 5z m-205 -66 c-27 -12 -43 -12 -25 0 8 5 22 9 30 9 10 0 8
-3 -5 -9z m-195 -90 c0 -13 -11 -13 -30 0 -12 8 -11 10 8 10 12 0 22 -4 22
-10z m0 -55 c16 -19 1 -19 -24 0 -16 12 -17 15 -4 15 8 0 21 -7 28 -15z"/>
<path d="M1622 2208 c3 -7 13 -15 24 -17 16 -3 17 -1 5 13 -16 19 -34 21 -29
4z"/>
<path d="M575 2030 c3 -5 10 -10 16 -10 5 0 9 5 9 10 0 6 -7 10 -16 10 -8 0
-12 -4 -9 -10z"/>
<path d="M612 1999 c2 -7 10 -15 17 -17 8 -3 12 1 9 9 -2 7 -10 15 -17 17 -8
3 -12 -1 -9 -9z"/>
<path d="M697 1863 c-11 -11 -8 -20 9 -27 23 -9 37 3 23 20 -13 15 -22 18 -32
7z"/>
<path d="M1222 1710 c7 -10 14 -18 15 -16 6 6 -9 36 -18 36 -5 0 -4 -9 3 -20z"/>
<path d="M1300 1595 c0 -9 5 -15 11 -13 6 2 11 8 11 13 0 5 -5 11 -11 13 -6 2
-11 -4 -11 -13z"/>
<path d="M1357 1492 c-28 -30 -22 -89 12 -123 36 -36 73 -37 106 -4 42 41 30
102 -25 130 -39 20 -73 19 -93 -3z m98 -27 c14 -13 25 -32 25 -42 0 -15 -3
-14 -19 6 -10 13 -29 32 -42 42 -20 16 -21 19 -6 19 10 0 29 -11 42 -25z"/>
<path d="M1110 706 c0 -9 5 -16 10 -16 6 0 10 4 10 9 0 6 -4 13 -10 16 -5 3
-10 -1 -10 -9z"/>
<path d="M1100 596 c0 -18 17 -29 30 -21 8 5 7 11 -1 21 -15 18 -29 18 -29 0z"/>
<path d="M1887 2003 c-4 -3 -21 -6 -39 -6 -18 0 -25 -2 -15 -4 21 -5 21 -10 2
-29 -8 -9 -15 -21 -15 -27 0 -7 4 -6 9 2 8 12 13 11 30 -10 l20 -24 -5 25 c-2
14 -2 19 2 13 3 -7 17 -13 30 -13 25 0 32 14 12 26 -7 4 -8 3 -4 -4 4 -7 3
-12 -3 -12 -6 0 -7 15 -4 35 5 32 -4 45 -20 28z"/>
<path d="M2002 1928 c-7 -7 -12 -20 -12 -30 0 -11 -11 -20 -32 -26 -23 -6 -33
-14 -33 -28 0 -13 10 -22 33 -29 26 -7 32 -14 32 -36 0 -15 6 -32 14 -38 11
-10 17 -7 30 11 9 12 16 30 16 40 0 12 8 18 23 18 27 0 62 33 53 49 -4 6 -22
13 -41 17 -24 4 -35 12 -35 23 0 17 -18 41 -30 41 -3 0 -11 -5 -18 -12z m31
-29 c4 -16 3 -18 -9 -8 -16 13 -19 29 -5 29 5 0 11 -9 14 -21z m-52 -46 c-11
-5 -11 -7 0 -14 10 -6 8 -9 -8 -9 -23 0 -37 13 -26 24 3 3 16 6 27 5 13 0 16
-3 7 -6z m124 -2 c3 -6 -3 -15 -14 -21 -13 -7 -22 -7 -26 0 -3 5 0 10 7 10 9
0 9 3 -2 10 -12 8 -11 10 7 10 12 0 24 -4 28 -9z m-75 -11 c0 -5 -4 -10 -10
-10 -5 0 -10 5 -10 10 0 6 5 10 10 10 6 0 10 -4 10 -10z m-9 -73 c-10 -9 -11
-8 -5 6 3 10 9 15 12 12 3 -3 0 -11 -7 -18z"/>
<path d="M2186 1714 c-7 -17 15 -64 38 -83 14 -12 16 -9 16 21 0 33 -23 78
-39 78 -5 0 -12 -7 -15 -16z"/>
<path d="M2282 1688 c-13 -13 -16 -78 -4 -78 16 0 32 25 32 51 0 32 -12 43
-28 27z"/>
<path d="M2160 1605 c0 -29 24 -65 42 -65 15 0 18 -5 13 -22 -5 -20 -4 -21 5
-5 8 12 24 17 54 17 29 0 48 6 59 18 21 23 21 28 2 36 -17 6 -65 -13 -65 -26
0 -4 -11 -8 -25 -8 -16 0 -25 6 -25 15 0 17 -35 55 -50 55 -5 0 -10 -7 -10
-15z m35 -15 c3 -5 1 -10 -4 -10 -6 0 -11 5 -11 10 0 6 2 10 4 10 3 0 8 -4 11
-10z"/>
<path d="M236 1411 c-3 -5 0 -14 8 -20 10 -8 16 -8 25 2 6 8 8 17 4 20 -9 10
-31 9 -37 -2z"/>
<path d="M2298 1388 c9 -9 15 -9 24 0 9 9 7 12 -12 12 -19 0 -21 -3 -12 -12z"/>
<path d="M251 1305 c0 -16 4 -39 8 -50 7 -16 9 -12 9 16 0 20 -4 42 -9 50 -6
10 -9 5 -8 -16z"/>
<path d="M2308 1324 c-5 -4 -8 -26 -7 -48 0 -37 1 -39 10 -16 11 27 8 76 -3
64z"/>
<path d="M325 1280 c3 -5 8 -10 11 -10 2 0 4 5 4 10 0 6 -5 10 -11 10 -5 0 -7
-4 -4 -10z"/>
<path d="M2225 1280 c3 -5 8 -10 11 -10 2 0 4 5 4 10 0 6 -5 10 -11 10 -5 0
-7 -4 -4 -10z"/>
<path d="M363 1205 c-9 -10 -9 -17 0 -29 11 -15 13 -15 24 3 15 25 -5 47 -24
26z"/>
<path d="M198 1203 c-21 -5 -23 -17 -5 -31 19 -16 126 -20 120 -4 -3 6 -13 12
-22 12 -9 0 -21 4 -26 9 -14 12 -47 19 -67 14z m52 -23 c0 -13 -20 -13 -40 0
-12 8 -9 10 13 10 15 0 27 -4 27 -10z"/>
<path d="M2282 1194 c4 -3 -2 -14 -13 -23 -19 -15 -17 -16 35 -15 53 1 86 15
86 35 0 5 -7 9 -16 9 -8 0 -12 -5 -9 -10 9 -14 -22 -24 -38 -13 -15 12 -54 27
-45 17z"/>
<path d="M2190 1180 c0 -5 4 -10 9 -10 6 0 13 5 16 10 3 6 -1 10 -9 10 -9 0
-16 -4 -16 -10z"/>
<path d="M201 1046 c-9 -10 -8 -16 3 -25 10 -9 16 -8 25 3 9 10 8 16 -3 25
-10 9 -16 8 -25 -3z"/>
<path d="M2345 1041 c-7 -12 12 -24 25 -16 11 7 4 25 -10 25 -5 0 -11 -4 -15
-9z"/>
<path d="M290 612 c-13 -43 -10 -112 4 -77 14 38 23 50 40 53 14 3 16 -20 16
-240 0 -175 -3 -247 -12 -256 -20 -20 -2 -24 33 -7 l34 16 -3 230 c-2 139 0
229 6 229 13 0 29 -21 35 -45 3 -15 5 -13 6 8 1 21 5 28 19 25 14 -3 17 -17
20 -91 1 -48 -1 -87 -5 -87 -4 0 -8 -55 -8 -123 l0 -123 49 13 c62 16 70 24
61 60 -5 18 -9 23 -12 13 -6 -16 -32 -40 -45 -40 -4 0 -8 36 -8 80 0 82 9 98
36 63 12 -16 13 -13 14 25 0 40 -1 42 -25 36 -25 -6 -25 -6 -25 65 0 39 4 71
9 71 15 0 41 -30 42 -48 0 -10 5 -5 11 11 13 36 3 47 -62 72 -29 11 -55 26
-57 33 -3 6 -12 12 -19 12 -8 0 -41 14 -74 30 -33 17 -62 30 -64 30 -3 0 -10
-17 -16 -38z"/>
<path d="M2197 611 c-20 -24 -25 -44 -31 -118 -6 -84 -29 -254 -42 -316 -10
-46 -31 -32 -38 26 -3 28 -12 73 -18 98 -9 40 -9 53 5 82 20 41 22 128 5 145
-15 15 -45 15 -85 2 l-29 -11 3 -161 c2 -107 -1 -166 -8 -174 -9 -11 -5 -16
16 -24 14 -5 28 -10 29 -10 2 0 1 36 -1 80 -4 67 -3 80 10 80 11 0 18 -18 26
-63 6 -35 11 -71 11 -81 0 -10 14 -23 35 -32 57 -24 62 -21 67 50 3 35 9 70
14 77 4 7 7 33 6 58 -3 50 11 83 26 66 14 -15 23 -78 13 -94 -5 -8 -3 -24 6
-40 9 -17 13 -50 11 -96 -2 -59 0 -70 14 -73 19 -4 33 18 42 68 6 35 -15 159
-55 333 -12 49 -18 91 -15 95 4 3 16 0 27 -7 28 -17 30 -12 18 32 -12 45 -29
47 -62 8z m-147 -127 c18 -47 -13 -136 -41 -119 -10 7 -12 88 -3 123 8 30 32
28 44 -4z"/>
<path d="M1996 621 c-4 -5 -2 -12 3 -15 5 -4 12 -2 15 3 4 5 2 12 -3 15 -5 4
-12 2 -15 -3z"/>
<path d="M1875 580 c-4 -6 -3 -16 3 -22 6 -6 12 -6 17 2 4 6 3 16 -3 22 -6 6
-12 6 -17 -2z"/>
<path d="M620 464 c-17 -44 -11 -74 26 -134 41 -66 45 -125 9 -125 -12 0 -22
9 -26 25 -6 19 -7 16 -6 -15 2 -37 4 -40 32 -40 25 0 33 7 48 37 21 44 13 84
-30 151 -30 47 -35 90 -11 95 10 2 23 -8 32 -25 l15 -28 1 31 c0 24 -6 34 -25
42 -39 18 -55 15 -65 -14z"/>
<path d="M1835 478 l-30 -9 3 -87 c2 -48 0 -110 -6 -139 -9 -49 -8 -51 15 -56
22 -4 23 -2 23 54 0 95 25 89 45 -10 9 -48 14 -56 35 -59 20 -3 23 -1 13 9 -7
7 -13 27 -13 44 -1 16 -7 47 -14 68 -12 33 -12 41 5 74 23 45 24 72 3 101 -16
24 -32 26 -79 10z m55 -44 c12 -31 -6 -77 -33 -82 -14 -3 -17 4 -17 46 0 27 3
52 7 55 14 15 34 6 43 -19z"/>
<path d="M1602 449 c-13 -5 -43 -10 -68 -11 -42 -3 -44 -5 -44 -33 1 -25 2
-27 11 -12 5 9 16 17 24 17 11 0 15 -21 17 -97 3 -89 5 -98 23 -101 19 -3 20
2 17 103 -3 90 -1 105 12 105 9 0 16 -6 17 -12 0 -7 5 -2 10 11 13 33 8 40
-19 30z"/>
<path d="M755 430 c-14 -15 -17 -35 -16 -101 2 -122 38 -172 87 -118 15 16 18
37 19 104 0 75 -3 86 -24 109 -29 31 -42 32 -66 6z m59 -26 c9 -24 7 -157 -3
-173 -5 -8 -16 -11 -24 -8 -24 9 -31 119 -11 185 5 17 31 15 38 -4z"/>
<path d="M1685 439 c-30 -8 -30 -9 -27 -73 2 -36 -1 -86 -6 -111 -5 -25 -6
-45 -2 -45 5 0 15 -3 23 -6 12 -4 14 3 10 40 -4 30 -2 46 5 46 14 0 32 -33 32
-59 0 -18 36 -49 45 -39 2 2 -5 30 -16 63 -18 56 -18 61 -3 102 13 34 15 49 6
68 -12 27 -20 28 -67 14z m42 -35 c8 -21 -13 -64 -32 -64 -10 0 -15 10 -15 33
0 19 3 37 7 40 12 12 33 7 40 -9z"/>
<path d="M878 328 c4 -97 12 -118 43 -118 30 0 47 40 50 115 2 54 -1 71 -12
73 -11 2 -13 -10 -11 -62 4 -75 -10 -115 -35 -95 -12 10 -14 30 -11 91 3 71
-2 88 -25 88 -1 0 0 -42 1 -92z"/>
<path d="M995 306 c0 -75 2 -86 18 -86 12 0 17 8 17 30 0 17 4 30 9 30 5 0 14
-13 20 -30 5 -16 15 -30 21 -30 8 0 9 8 3 23 -4 12 -7 45 -5 74 3 57 2 58 -48
68 l-35 6 0 -85z m60 34 c0 -13 -6 -25 -12 -27 -9 -3 -13 6 -13 27 0 21 4 30
13 28 6 -3 12 -15 12 -28z"/>
<path d="M1120 351 c-22 -42 -6 -131 24 -131 40 0 67 98 36 135 -17 21 -47 19
-60 -4z m45 -51 c0 -34 -4 -46 -17 -48 -21 -4 -32 29 -23 69 5 21 12 29 23 27
13 -2 17 -14 17 -48z"/>
<path d="M1410 314 c-7 -30 -9 -58 -6 -61 3 -4 6 1 6 10 0 21 26 22 34 2 3 -8
10 -15 15 -15 5 0 2 27 -6 60 -9 33 -19 60 -24 60 -4 0 -13 -25 -19 -56z"/>
<path d="M1214 345 c-3 -8 6 -29 20 -46 35 -41 33 -56 -6 -50 -5 0 -8 -4 -8
-10 0 -16 42 -6 54 13 8 14 5 23 -19 48 -23 24 -26 33 -17 42 10 10 15 10 22
-2 5 -8 12 -11 15 -8 12 12 -6 28 -31 28 -14 0 -27 -7 -30 -15z"/>
<path d="M1325 305 c0 -46 3 -55 18 -55 9 0 17 5 17 10 0 6 -4 10 -10 10 -5 0
-10 16 -10 35 0 24 5 35 15 35 8 0 15 -5 15 -12 0 -6 2 -9 5 -6 12 11 -8 38
-29 38 -19 0 -21 -6 -21 -55z"/>
<path d="M1348 213 c23 -2 61 -2 85 0 23 2 4 4 -43 4 -47 0 -66 -2 -42 -4z"/>
<path d="M1 14 c0 -11 3 -14 6 -6 3 7 2 16 -1 19 -3 4 -6 -2 -5 -13z"/>
</g>
</svg>
